# Blender 4.2.1 LTS
# www.blender.org
mtllib cube.mtl
o Cube
v 0.400000 0.400000 -0.400000
v 0.400000 -0.400000 -0.400000
v 0.400000 0.400000 0.400000
v 0.400000 -0.400000 0.400000
v -0.400000 0.400000 -0.400000
v -0.400000 -0.400000 -0.400000
v -0.400000 0.400000 0.400000
v -0.400000 -0.400000 0.400000
vn -0.0000 1.0000 -0.0000
vn -0.0000 -0.0000 1.0000
vn -1.0000 -0.0000 -0.0000
vn -0.0000 -1.0000 -0.0000
vn 1.0000 -0.0000 -0.0000
vn -0.0000 -0.0000 -1.0000
vt 0.997393 0.668154
vt 0.008862 0.998560
vt 0.008862 0.668154
vt 0.996130 0.665747
vt 0.004913 0.336236
vt 0.996130 0.336236
vt 0.996130 0.663647
vt 0.004913 0.334137
vt 0.996130 0.334137
vt 0.994491 0.001286
vt 0.005960 0.331691
vt 0.005960 0.001286
vt 0.996130 0.665086
vt 0.004913 0.335576
vt 0.996130 0.335576
vt 0.996131 0.667706
vt 0.004913 0.338196
vt 0.996131 0.338196
vt 0.997393 0.998560
vt 0.004913 0.665747
vt 0.004913 0.663647
vt 0.994491 0.331691
vt 0.004913 0.665086
vt 0.004913 0.667706
s 0
usemtl Material
f 5/1/1 3/2/1 1/3/1
f 3/4/2 8/5/2 4/6/2
f 7/7/3 6/8/3 8/9/3
f 2/10/4 8/11/4 6/12/4
f 1/13/5 4/14/5 2/15/5
f 5/16/6 2/17/6 6/18/6
f 5/1/1 7/19/1 3/2/1
f 3/4/2 7/20/2 8/5/2
f 7/7/3 5/21/3 6/8/3
f 2/10/4 4/22/4 8/11/4
f 1/13/5 3/23/5 4/14/5
f 5/16/6 1/24/6 2/17/6
